<?xml version="1.0" encoding="UTF-8"?>
<svg width="470px" height="236px" viewBox="0 0 470 236" version="1.1" xmlns="http://www.w3.org/2000/svg" xmlns:xlink="http://www.w3.org/1999/xlink">
    <!-- Generator: Sketch 61.2 (89653) - https://sketch.com -->
    <title>Group</title>
    <desc>Created with Sketch.</desc>
    <g id="CHARTE-GRAPHIQUE" stroke="none" stroke-width="1" fill="none" fill-rule="evenodd">
        <g id="01" transform="translate(-760.000000, -506.000000)">
            <g id="Group" transform="translate(760.000000, 506.000000)">
                <g id="Group-63" transform="translate(0.000000, 11.000000)" fill="#FFFFFF">
                    <path d="M363.54373,60.598285 C363.54373,48.2186913 363.478803,28.7992249 363.34895,2.33988554 C363.342983,1.12487164 364.323112,0.135074378 365.538126,0.129111493 C365.541725,0.129093831 365.545324,0.129085 365.548923,0.129085 L382.716656,0.129085 C383.931686,0.129077886 384.916663,1.11405462 384.916663,2.329085 C384.916663,2.32946791 384.916663,2.32985082 384.916662,2.33023374 C384.892014,49.5350724 384.899288,84.4655562 384.938485,107.121685 C384.96128,120.485035 382.38068,133.115235 375.22023,144.588235 C372.752975,148.542555 369.903702,152.161122 366.696321,155.482266 C365.964865,156.239667 364.492611,157.587988 362.27956,159.52723 C361.36574,160.328007 359.975787,160.236351 359.175021,159.322522 C359.147131,159.290694 359.120164,159.258067 359.094156,159.224683 L348.624857,145.786483 C347.924203,144.887128 348.026674,143.601521 348.860949,142.824513 C350.670662,141.139024 351.860783,139.987051 352.431313,139.368594 C359.21711,132.012748 362.840159,123.079627 363.33803,112.749285 C364.25598,93.710485 351.19513,76.010385 332.73438,71.037835 C308.243736,64.4406501 284.373828,79.8389853 279.927009,103.992239 C279.765642,104.868713 279.59714,106.733039 279.421502,109.585216 C279.350053,110.745537 278.38818,111.65 277.225661,111.65 L259.995773,111.65 C258.780742,111.650008 257.795764,110.665031 257.795764,109.45 C257.795764,109.416913 257.796511,109.38383 257.798003,109.350777 C257.921155,106.622982 258.044635,104.77539 258.168442,103.808002 C261.84486,75.08175 284.644444,51.9028696 313.81493,48.549435 C331.87638,46.472635 348.01778,51.423185 362.13243,62.910485 C362.40853,63.134885 362.67143,63.376885 362.95083,63.596885 C363.00253,63.637035 363.10428,63.612835 363.54373,63.645285 L363.54373,60.598285 Z" id="Fill-1"></path>
                    <path d="M193.195035,218.251825 C155.218085,232.567225 113.166185,207.594475 107.813585,167.411475 C106.944969,160.888308 106.728382,150.711409 107.163822,136.880778 C107.201201,135.693289 108.174655,134.75 109.362733,134.75 L126.377934,134.75 C127.592955,134.75001 128.577924,135.734979 128.577924,136.95 C128.577924,136.954221 128.577912,136.958441 128.577888,136.962662 C128.52058,146.919551 128.522179,154.141322 128.582685,158.627975 C128.857135,178.955425 142.235335,195.483475 161.931385,199.937375 C185.646835,205.299875 209.415085,188.686025 212.630385,164.540475 C212.937835,162.233225 213.075885,159.933675 213.086885,157.615975 C213.131805,148.160801 213.198903,133.568826 213.288179,113.84005 C213.293654,112.628919 214.277013,111.65 215.488156,111.65 L232.482085,111.65 C233.697111,111.65 234.682085,112.634974 234.682085,113.85 C234.682085,143.747725 234.682085,173.64545 234.682085,203.543175 C234.682085,209.211292 234.682085,214.879408 234.682085,220.547525 C234.682085,221.762551 233.697111,222.747525 232.482085,222.747525 L215.498082,222.747525 C214.283057,222.747522 213.298085,221.76255 213.298085,220.547525 C213.298085,214.033877 213.298085,209.233294 213.298085,206.145775 C206.824035,211.474725 200.415435,215.529875 193.195035,218.251825 Z" id="Fill-3"></path>
                    <path d="M44.001815,51.562665 C64.7630705,45.2448466 83.7698469,48.1842578 101.016802,60.37066 C101.618156,60.7955659 102.699939,61.6304867 104.262154,62.8754224 C105.21237,63.6326455 105.368815,65.0167998 104.611586,65.9670121 C104.522443,66.0788745 104.422602,66.1817765 104.313482,66.2742571 L91.0251628,77.5363004 C90.259086,78.1855678 89.1505841,78.2336833 88.3311277,77.6532413 C87.5393643,77.0924149 87.0101407,76.727756 86.7434568,76.5592647 C63.5648257,61.9149624 33.4677228,71.7854085 23.968065,98.290665 C22.255915,103.068515 21.885215,108.016865 21.875865,113.027365 C21.8680695,117.257627 21.8674799,123.764614 21.8740963,132.548326 C21.8750283,133.763361 20.8907894,134.749084 19.6757541,134.749999 C19.6752017,134.75 19.6746493,134.75 19.6740969,134.75 L2.408065,134.75 C1.19307661,134.749903 0.208118831,133.764988 0.207967532,132.55 L0.204312468,50.05 C0.204161172,48.8349736 1.18909108,47.8499564 2.40411753,47.8499025 C2.40415002,47.8499025 2.40418251,47.8499025 2.404215,47.85 L19.752865,47.85 C20.9678914,47.85 21.952865,48.8349736 21.952865,50.05 C21.952865,54.7301883 21.952865,59.4103767 21.952865,64.090565 C28.992315,58.367815 35.984465,54.001915 44.001815,51.562665 Z" id="Fill-5"></path>
                </g>
                <circle id="Oval" fill="#FF8D6D" cx="28.82" cy="177.1" r="7.7"></circle>
                <circle id="Oval-Copy-6" fill="#FF8D6D" cx="288.42" cy="177.1" r="7.7"></circle>
                <circle id="Oval-Copy-8" fill="#FF8D6D" cx="312.62" cy="177.1" r="7.7"></circle>
                <circle id="Oval-Copy-10" fill="#FF8D6D" cx="438.02" cy="91.3" r="7.7"></circle>
                <circle id="Oval-Copy-13" fill="#FF8D6D" cx="462.22" cy="67.1" r="7.7"></circle>
                <circle id="Oval-Copy-9" fill="#FF8D6D" cx="312.62" cy="201.3" r="7.7"></circle>
                <circle id="Oval-Copy" fill="#FF8D6D" cx="28.82" cy="201.3" r="7.7"></circle>
                <circle id="Oval-Copy-3" fill="#FF8D6D" cx="55.22" cy="201.3" r="7.7"></circle>
                <circle id="Oval-Copy-2" fill="#FF8D6D" cx="28.82" cy="225.5" r="7.7"></circle>
                <circle id="Oval-Copy-4" fill="#FF8D6D" cx="154.22" cy="115.5" r="7.7"></circle>
                <circle id="Oval-Copy-7" fill="#FF8D6D" cx="154.22" cy="67.1" r="7.7"></circle>
                <circle id="Oval-Copy-5" fill="#FF8D6D" cx="180.62" cy="115.5" r="7.7"></circle>
                <rect id="Rectangle" fill="#FFFFFF" x="408.32" y="146.4" width="22" height="89" rx="2.2"></rect>
                <circle id="Oval" fill="#FFFFFF" cx="419.32" cy="11" r="11"></circle>
            </g>
        </g>
    </g>
</svg>